<svg xmlns="http://www.w3.org/2000/svg" viewBox="0 0 44.95 41.95"><defs><style>.cls-1{fill:#332721;}.cls-2{fill:#ffe19d;}</style></defs><g id="Слой_2" data-name="Слой 2"><g id="Layer_1" data-name="Layer 1"><path class="cls-1" d="M28.49.24c-.91-.41-1.9-.45-4.09,1.2a6.52,6.52,0,0,1-4.06,1.3,5,5,0,0,0-4.79-1.56c-2.1.29-2.7,1.42-2.87,2.06-.38,1.48.61,3.47,2.43,4.83C17.14,9.61,18,10.3,18,11.6a3.53,3.53,0,0,1-.4,1.68l-.09.19c-1.68,3.45.1,8.12.89,9.87A1.18,1.18,0,0,0,19.5,24h6.18a1.2,1.2,0,0,0,1.1-.74c4.06-10.15-.9-11.75-1.61-15.55S28.49.24,28.49.24ZM19.07,10.46c-.35-1.15-1.37-2-3.12-3.3C14.44,6,13.45,4.68,13.74,3.55a2.45,2.45,0,0,1,2-1.73h.07A4.16,4.16,0,0,1,20.44,6.1,10.35,10.35,0,0,1,19.07,10.46Z"/><path class="cls-1" d="M41.89,22.69H3.06a3.06,3.06,0,0,0,0,6.12h7.16L5.31,40.61a1,1,0,0,0,.52,1.27A.94.94,0,0,0,6.2,42a1,1,0,0,0,.89-.6L9.75,35H35.21l2.65,6.38a1,1,0,0,0,.9.6,1,1,0,0,0,.37-.07,1,1,0,0,0,.52-1.27l-4.92-11.8h7.16a3.06,3.06,0,1,0,0-6.12Z"/><polygon class="cls-2" points="34.4 33.04 10.55 33.04 12.31 28.81 32.64 28.81 34.4 33.04"/><path class="cls-2" d="M41.89,26.88H3.06a1.13,1.13,0,1,1,0-2.26H41.89a1.13,1.13,0,1,1,0,2.26Z"/><path class="cls-1" d="M17.73,31.93h9.49a1,1,0,1,0,0-1.93H17.73a1,1,0,1,0,0,1.93Z"/></g></g></svg>